<svg viewBox="0 0 38 34" fill="none" xmlns="http://www.w3.org/2000/svg">
<path d="M33.7342 4.68638C32.8829 3.83472 31.8722 3.15912 30.7598 2.69818C29.6473 2.23725 28.455 2 27.2509 2C26.0467 2 24.8544 2.23725 23.7419 2.69818C22.6295 3.15912 21.6188 3.83472 20.7675 4.68638L19.0009 6.45304L17.2342 4.68638C15.5147 2.96689 13.1826 2.00089 10.7509 2.00089C8.31913 2.00089 5.987 2.96689 4.26752 4.68638C2.54803 6.40586 1.58203 8.73799 1.58203 11.1697C1.58203 13.6014 2.54803 15.9336 4.26752 17.653L6.03418 19.4197L19.0009 32.3864L31.9675 19.4197L33.7342 17.653C34.5858 16.8018 35.2614 15.7911 35.7224 14.6786C36.1833 13.5662 36.4206 12.3739 36.4206 11.1697C36.4206 9.96556 36.1833 8.77322 35.7224 7.66078C35.2614 6.54835 34.5858 5.53764 33.7342 4.68638V4.68638Z" stroke="black" fill="currentColor" stroke-width="2" stroke-linecap="round" stroke-linejoin="round"/>
</svg>
